<svg xmlns:xlink="http://www.w3.org/1999/xlink" xmlns="http://www.w3.org/2000/svg" class="nm-icon-gps-small" width="24"  height="24" ><defs><svg xmlns="http://www.w3.org/2000/svg" viewBox="0 0 24 24" id="nm-icon-gps-small">
    <title>gps-small</title>
    <path fill="none" d="M0 0h24v24H0z"></path>
    <path d="M23 11h-2.026a9.508 9.508 0 0 0-8.971-8.975V0h-1v2.025A9.507 9.507 0 0 0 2.026 11H0v1h2.024A9.487 9.487 0 0 0 11 20.975V23h1v-2.025A9.486 9.486 0 0 0 20.976 12H23zm-11 8.975V17h-1v2.975A8.487 8.487 0 0 1 3.024 12H6v-1H3.026a8.508 8.508 0 0 1 7.977-7.975V6h1V3.026A8.508 8.508 0 0 1 19.973 11H17v1h2.976A8.487 8.487 0 0 1 12 19.975z"></path>
</svg></defs>
							<use xlink:href="#nm-icon-gps-small" fill="#4C4C4C"></use>
						</svg>