<svg width="36px" height="36px" xmlns="http://www.w3.org/2000/svg"><path d="M25.668 9H10.329A1.314 1.314 0 009 10.297v15.404C9 26.418 9.595 27 10.329 27h15.339c.735 0 1.332-.582 1.332-1.299V10.297A1.317 1.317 0 0025.668 9zm-11.33 15.339h-2.67v-8.59h2.67v8.59zm-1.334-9.765a1.548 1.548 0 110-3.096 1.548 1.548 0 010 3.096zm11.333 9.765h-2.666V20.16c0-.997-.018-2.279-1.388-2.279-1.389 0-1.602 1.087-1.602 2.206v4.25h-2.669v-8.59h2.563v1.173h.034c.357-.675 1.227-1.388 2.526-1.388 2.704 0 3.202 1.78 3.202 4.093v4.713z" fill="currentColor"/></svg>