<svg xmlns:xlink="http://www.w3.org/1999/xlink" width="36" height="36" xmlns="http://www.w3.org/2000/svg"><path d="M25.55 12.364c.982.177 1.993.12 2.95-.165a11.638 11.638 0 00-3.01 2.183 11.31 11.31 0 01-9.144 11.903 14.601 14.601 0 01-8.846-2.36s3.933 1.062 6.104-1.34c0 0-3.696.337-4.581-2.52a11.242 11.242 0 002.58-.364 4.197 4.197 0 01-3.413-4.115 4.05 4.05 0 001.928.515s-2.857-2.58-1.087-5.607c0 0 3.829 4.675 8.571 4.407a4.077 4.077 0 016.855-3.871 6.393 6.393 0 002.773-1.335 3.547 3.547 0 01-1.68 2.67z" fill="#FFFFFF"></path></svg>